<svg width="28" height="28" viewBox="0 0 28 28" fill="none" xmlns="http://www.w3.org/2000/svg">
<path fill-rule="evenodd" clip-rule="evenodd" d="M17.75 7.43744C17.75 8.432 17.3549 9.38583 16.6516 10.0891C15.9484 10.7924 14.9946 11.1874 14 11.1874C13.0054 11.1874 12.0516 10.7924 11.3483 10.0891C10.6451 9.38583 10.25 8.432 10.25 7.43744C10.25 6.44288 10.6451 5.48905 11.3483 4.78579C12.0516 4.08253 13.0054 3.68744 14 3.68744C14.9946 3.68744 15.9484 4.08253 16.6516 4.78579C17.3549 5.48905 17.75 6.44288 17.75 7.43744ZM20.5625 7.43744C20.5625 9.17792 19.8711 10.8471 18.6404 12.0778C17.4097 13.3085 15.7405 13.9999 14 13.9999C12.2595 13.9999 10.5903 13.3085 9.35961 12.0778C8.1289 10.8471 7.4375 9.17792 7.4375 7.43744C7.4375 5.69696 8.1289 4.02776 9.35961 2.79705C10.5903 1.56634 12.2595 0.874939 14 0.874939C15.7405 0.874939 17.4097 1.56634 18.6404 2.79705C19.8711 4.02776 20.5625 5.69696 20.5625 7.43744ZM3.6875 22.4374C3.6875 22.0549 4.1 20.9206 6.1625 19.7018C8.07125 18.5749 10.85 17.7499 14 17.7499C17.15 17.7499 19.9288 18.5749 21.8375 19.7018C23.9 20.9206 24.3125 22.0549 24.3125 22.4374C24.3125 22.9347 24.115 23.4116 23.7633 23.7633C23.4117 24.1149 22.9348 24.3124 22.4375 24.3124H5.5625C5.06522 24.3124 4.58831 24.1149 4.23667 23.7633C3.88504 23.4116 3.6875 22.9347 3.6875 22.4374ZM14 14.9374C6.78125 14.9374 0.875 18.6874 0.875 22.4374C0.875 23.6806 1.36886 24.8729 2.24794 25.752C3.12701 26.6311 4.3193 27.1249 5.5625 27.1249H22.4375C23.6807 27.1249 24.873 26.6311 25.7521 25.752C26.6311 24.8729 27.125 23.6806 27.125 22.4374C27.125 18.6874 21.2188 14.9374 14 14.9374Z" fill="black" fill-opacity="0.6"/>
</svg>
