<svg width="14" height="14" viewBox="0 0 14 14" fill="none" xmlns="http://www.w3.org/2000/svg">
<path d="M5.8093 0.0540016C5.87547 0.0868032 5.93356 0.133856 5.97938 0.19178C6.0252 0.249703 6.05762 0.317057 6.0743 0.389002C6.0923 0.468002 6.5863 2.582 6.5863 4C6.5863 4.95 6.1443 5.797 5.4563 6.346C5.2063 6.546 5.0863 6.764 5.0863 6.946V7.432C5.0863 7.45533 5.08764 7.47733 5.0903 7.498C5.1243 7.746 5.2473 8.667 5.3623 9.622C5.4753 10.559 5.5863 11.581 5.5863 12C5.5863 12.5304 5.37559 13.0391 5.00052 13.4142C4.62544 13.7893 4.11674 14 3.5863 14C3.05587 14 2.54716 13.7893 2.17209 13.4142C1.79702 13.0391 1.5863 12.5304 1.5863 12C1.5863 11.58 1.6973 10.56 1.8103 9.622C1.9253 8.667 2.0483 7.746 2.0823 7.498L2.0863 7.432V6.946C2.0863 6.764 1.9663 6.546 1.7163 6.346C1.36379 6.06499 1.07913 5.70815 0.883499 5.302C0.687866 4.89584 0.586284 4.45082 0.586304 4C0.586304 2.587 1.0763 0.484002 1.0983 0.390002C1.1243 0.278842 1.18719 0.179769 1.27672 0.108943C1.36626 0.0381164 1.47714 -0.000285047 1.5913 1.59311e-06C1.8713 1.59311e-06 2.0983 0.227002 2.0983 0.507002V3.505C2.09436 3.57253 2.1043 3.64015 2.12751 3.70369C2.15072 3.76723 2.18671 3.82534 2.23325 3.87443C2.27979 3.92351 2.3359 3.96254 2.39811 3.9891C2.46033 4.01566 2.52732 4.02919 2.59497 4.02884C2.66261 4.0285 2.72947 4.0143 2.79141 3.98711C2.85335 3.95992 2.90906 3.92033 2.9551 3.87077C3.00115 3.82121 3.03654 3.76275 3.05911 3.69898C3.08167 3.63521 3.09093 3.56749 3.0863 3.5V0.500002C3.0863 0.367393 3.13898 0.240216 3.23275 0.146448C3.32652 0.05268 3.4537 1.59311e-06 3.5863 1.59311e-06C3.71891 1.59311e-06 3.84609 0.05268 3.93986 0.146448C4.03363 0.240216 4.0863 0.367393 4.0863 0.500002V3.526C4.08909 3.65728 4.14391 3.78208 4.23871 3.87294C4.33351 3.96381 4.46052 4.01329 4.5918 4.0105C4.72309 4.00772 4.84788 3.95289 4.93875 3.85809C5.02961 3.7633 5.07909 3.63628 5.0763 3.505V0.505002C5.0763 0.226002 5.3023 1.59311e-06 5.5823 1.59311e-06C5.6043 1.59311e-06 5.7023 1.61305e-06 5.8093 0.0540016ZM8.0863 4.5C8.0863 3.30653 8.56041 2.16193 9.40432 1.31802C10.2482 0.474107 11.3928 1.59311e-06 12.5863 1.59311e-06C12.7189 1.59311e-06 12.8461 0.05268 12.9399 0.146448C13.0336 0.240216 13.0863 0.367393 13.0863 0.500002V6.473L13.1053 6.65C13.1848 7.39634 13.2612 8.14301 13.3343 8.89C13.4573 10.146 13.5863 11.554 13.5863 12C13.5863 12.5304 13.3756 13.0391 13.0005 13.4142C12.6254 13.7893 12.1167 14 11.5863 14C11.0559 14 10.5472 13.7893 10.1721 13.4142C9.79702 13.0391 9.5863 12.5304 9.5863 12C9.5863 11.554 9.7153 10.146 9.8383 8.89C9.9013 8.253 9.9643 7.643 10.0113 7.191L10.0313 7H9.0863C8.82109 7 8.56673 6.89464 8.3792 6.70711C8.19166 6.51957 8.0863 6.26522 8.0863 6V4.5Z" fill="black" fill-opacity="0.8"/>
</svg>
