<svg width="26" height="26" viewBox="0 0 26 26" fill="none" xmlns="http://www.w3.org/2000/svg">
<path fill-rule="evenodd" clip-rule="evenodd" d="M5.2 2.60001H20.8C22.1791 2.60001 23.5018 3.14786 24.477 4.12305C25.4521 5.09824 26 6.42088 26 7.80001V20.8C26 22.1791 25.4521 23.5018 24.477 24.477C23.5018 25.4522 22.1791 26 20.8 26H5.2C3.82087 26 2.49823 25.4522 1.52304 24.477C0.547856 23.5018 0 22.1791 0 20.8V7.80001C0 6.42088 0.547856 5.09824 1.52304 4.12305C2.49823 3.14786 3.82087 2.60001 5.2 2.60001ZM5.2 5.20001C4.51044 5.20001 3.84912 5.47393 3.36152 5.96153C2.87393 6.44912 2.6 7.11044 2.6 7.80001V20.8C2.6 21.4896 2.87393 22.1509 3.36152 22.6385C3.84912 23.1261 4.51044 23.4 5.2 23.4H20.8C21.4896 23.4 22.1509 23.1261 22.6385 22.6385C23.1261 22.1509 23.4 21.4896 23.4 20.8V7.80001C23.4 7.11044 23.1261 6.44912 22.6385 5.96153C22.1509 5.47393 21.4896 5.20001 20.8 5.20001H5.2Z" fill="black"/>
<path fill-rule="evenodd" clip-rule="evenodd" d="M1.30005 10.4C1.30005 10.0552 1.43701 9.72456 1.68081 9.48076C1.92461 9.23696 2.25527 9.1 2.60005 9.1H23.4C23.7448 9.1 24.0755 9.23696 24.3193 9.48076C24.5631 9.72456 24.7001 10.0552 24.7001 10.4C24.7001 10.7448 24.5631 11.0754 24.3193 11.3192C24.0755 11.563 23.7448 11.7 23.4 11.7H2.60005C2.25527 11.7 1.92461 11.563 1.68081 11.3192C1.43701 11.0754 1.30005 10.7448 1.30005 10.4ZM7.80005 0C8.14483 0 8.47549 0.136964 8.71929 0.380761C8.96309 0.624558 9.10005 0.955219 9.10005 1.3V6.5C9.10005 6.84478 8.96309 7.17544 8.71929 7.41924C8.47549 7.66304 8.14483 7.8 7.80005 7.8C7.45527 7.8 7.12461 7.66304 6.88081 7.41924C6.63701 7.17544 6.50005 6.84478 6.50005 6.5V1.3C6.50005 0.955219 6.63701 0.624558 6.88081 0.380761C7.12461 0.136964 7.45527 0 7.80005 0ZM18.2001 0C18.5448 0 18.8755 0.136964 19.1193 0.380761C19.3631 0.624558 19.5 0.955219 19.5 1.3V6.5C19.5 6.84478 19.3631 7.17544 19.1193 7.41924C18.8755 7.66304 18.5448 7.8 18.2001 7.8C17.8553 7.8 17.5246 7.66304 17.2808 7.41924C17.037 7.17544 16.9 6.84478 16.9 6.5V1.3C16.9 0.955219 17.037 0.624558 17.2808 0.380761C17.5246 0.136964 17.8553 0 18.2001 0Z" fill="black"/>
<path d="M7.79995 14.3C7.79995 14.6448 7.66299 14.9754 7.41919 15.2192C7.17539 15.463 6.84473 15.6 6.49995 15.6C6.15517 15.6 5.82451 15.463 5.58071 15.2192C5.33692 14.9754 5.19995 14.6448 5.19995 14.3C5.19995 13.9552 5.33692 13.6246 5.58071 13.3808C5.82451 13.137 6.15517 13 6.49995 13C6.84473 13 7.17539 13.137 7.41919 13.3808C7.66299 13.6246 7.79995 13.9552 7.79995 14.3ZM7.79995 19.5C7.79995 19.8448 7.66299 20.1754 7.41919 20.4192C7.17539 20.663 6.84473 20.8 6.49995 20.8C6.15517 20.8 5.82451 20.663 5.58071 20.4192C5.33692 20.1754 5.19995 19.8448 5.19995 19.5C5.19995 19.1552 5.33692 18.8246 5.58071 18.5808C5.82451 18.337 6.15517 18.2 6.49995 18.2C6.84473 18.2 7.17539 18.337 7.41919 18.5808C7.66299 18.8246 7.79995 19.1552 7.79995 19.5ZM14.3 14.3C14.3 14.6448 14.163 14.9754 13.9192 15.2192C13.6754 15.463 13.3447 15.6 13 15.6C12.6552 15.6 12.3245 15.463 12.0807 15.2192C11.8369 14.9754 11.7 14.6448 11.7 14.3C11.7 13.9552 11.8369 13.6246 12.0807 13.3808C12.3245 13.137 12.6552 13 13 13C13.3447 13 13.6754 13.137 13.9192 13.3808C14.163 13.6246 14.3 13.9552 14.3 14.3ZM14.3 19.5C14.3 19.8448 14.163 20.1754 13.9192 20.4192C13.6754 20.663 13.3447 20.8 13 20.8C12.6552 20.8 12.3245 20.663 12.0807 20.4192C11.8369 20.1754 11.7 19.8448 11.7 19.5C11.7 19.1552 11.8369 18.8246 12.0807 18.5808C12.3245 18.337 12.6552 18.2 13 18.2C13.3447 18.2 13.6754 18.337 13.9192 18.5808C14.163 18.8246 14.3 19.1552 14.3 19.5ZM20.8 14.3C20.8 14.6448 20.663 14.9754 20.4192 15.2192C20.1754 15.463 19.8447 15.6 19.5 15.6C19.1552 15.6 18.8245 15.463 18.5807 15.2192C18.3369 14.9754 18.2 14.6448 18.2 14.3C18.2 13.9552 18.3369 13.6246 18.5807 13.3808C18.8245 13.137 19.1552 13 19.5 13C19.8447 13 20.1754 13.137 20.4192 13.3808C20.663 13.6246 20.8 13.9552 20.8 14.3ZM20.8 19.5C20.8 19.8448 20.663 20.1754 20.4192 20.4192C20.1754 20.663 19.8447 20.8 19.5 20.8C19.1552 20.8 18.8245 20.663 18.5807 20.4192C18.3369 20.1754 18.2 19.8448 18.2 19.5C18.2 19.1552 18.3369 18.8246 18.5807 18.5808C18.8245 18.337 19.1552 18.2 19.5 18.2C19.8447 18.2 20.1754 18.337 20.4192 18.5808C20.663 18.8246 20.8 19.1552 20.8 19.5Z" fill="black"/>
</svg>
