<svg width="28" height="28" viewBox="0 0 28 28" fill="none" xmlns="http://www.w3.org/2000/svg">
<path d="M26.9325 18.3949C26.7251 18.2598 26.4881 18.181 26.2433 18.166C25.9985 18.1509 25.7541 18.2 25.5326 18.3087C25.2278 18.4586 24.8903 18.5237 24.5535 18.4975C24.2168 18.4713 23.8926 18.3547 23.6129 18.1593C23.3333 17.9639 23.108 17.6964 22.9594 17.3834C22.8108 17.0704 22.744 16.7228 22.7656 16.3749C22.7987 15.8931 22.9974 15.4394 23.326 15.0955C23.6547 14.7517 24.0916 14.5405 24.5578 14.4999C24.8911 14.4742 25.225 14.5388 25.5266 14.6874C25.748 14.7973 25.9927 14.8475 26.238 14.8332C26.4832 14.8189 26.721 14.7407 26.929 14.6059C27.137 14.4711 27.3085 14.284 27.4275 14.0622C27.5465 13.8403 27.6091 13.591 27.6094 13.3374V7.99992C27.6094 7.33688 27.3542 6.70099 26.9 6.23215C26.4459 5.76331 25.8298 5.49992 25.1875 5.49992H21.3125C21.3114 4.81699 21.1754 4.14148 20.9126 3.51473C20.6498 2.88798 20.2659 2.32319 19.7843 1.85492C19.3026 1.38459 18.7318 1.02229 18.1079 0.790808C17.4839 0.559331 16.8203 0.463694 16.1588 0.509919C14.9917 0.589081 13.8916 1.1006 13.0608 1.95037C12.2301 2.80014 11.7245 3.931 11.6371 5.13492C11.625 5.25867 11.625 5.37492 11.625 5.49992H7.75002C7.10769 5.49992 6.49168 5.76331 6.03749 6.23215C5.5833 6.70099 5.32814 7.33688 5.32814 7.99992V11.4999C4.66656 11.501 4.01215 11.6415 3.40499 11.9128C2.79783 12.184 2.25068 12.5803 1.79705 13.0774C1.17045 13.7661 0.745688 14.6238 0.571956 15.5514C0.398223 16.479 0.482634 17.4384 0.815409 18.3185C1.14818 19.1986 1.71571 19.9634 2.45223 20.5242C3.18875 21.0851 4.06413 21.419 4.97697 21.4874C5.09374 21.4978 5.21095 21.502 5.32814 21.4999V24.9999C5.32814 25.663 5.5833 26.2988 6.03749 26.7677C6.49168 27.2365 7.10769 27.4999 7.75002 27.4999H25.1875C25.8298 27.4999 26.4459 27.2365 26.9 26.7677C27.3542 26.2988 27.6094 25.663 27.6094 24.9999V19.6637C27.6095 19.4104 27.5475 19.1612 27.4291 18.9394C27.3108 18.7175 27.1399 18.5302 26.9325 18.3949ZM24.7031 24.4999H8.23439V19.6637C8.23442 19.4105 8.17238 19.1615 8.05405 18.9398C7.93572 18.718 7.76496 18.5308 7.55766 18.3956C7.35036 18.2603 7.11327 18.1814 6.86847 18.1662C6.62368 18.151 6.37914 18.2 6.15763 18.3087C5.85447 18.4592 5.51837 18.5252 5.18283 18.4999C4.71772 18.4596 4.28177 18.2494 3.95328 17.9072C3.6248 17.5649 3.42531 17.1129 3.39064 16.6324C3.3682 16.2845 3.43425 15.9367 3.58223 15.6233C3.73021 15.3099 3.95499 15.0418 4.23427 14.8458C4.51355 14.6497 4.83763 14.5324 5.17437 14.5055C5.51112 14.4786 5.84882 14.543 6.154 14.6924C6.37565 14.8019 6.62058 14.8516 6.86589 14.8368C7.1112 14.8221 7.34887 14.7433 7.55669 14.608C7.7645 14.4726 7.93567 14.2851 8.05419 14.0629C8.17271 13.8407 8.23471 13.5911 8.23439 13.3374V8.49992H13.4051C13.6502 8.49974 13.8913 8.43554 14.106 8.31331C14.3206 8.19108 14.5018 8.01478 14.6327 7.80083C14.7636 7.58687 14.8399 7.34222 14.8546 7.08963C14.8692 6.83704 14.8217 6.58472 14.7165 6.35617C14.5707 6.04322 14.5068 5.69628 14.5313 5.34992C14.5701 4.86971 14.7736 4.41956 15.1052 4.08043C15.4369 3.7413 15.8749 3.53546 16.3404 3.49992C16.6774 3.47664 17.0143 3.54467 17.318 3.69727C17.6216 3.84987 17.8813 4.08174 18.0713 4.36988C18.2614 4.65803 18.3752 4.99245 18.4014 5.33998C18.4277 5.68752 18.3655 6.0361 18.221 6.35117C18.1146 6.58002 18.0663 6.83299 18.0805 7.08639C18.0946 7.33978 18.1709 7.58533 18.302 7.80002C18.4332 8.01472 18.615 8.19155 18.8304 8.31396C19.0458 8.43637 19.2878 8.50035 19.5336 8.49992H24.7031V11.4999C24.582 11.4999 24.4694 11.4999 24.352 11.5137C23.1025 11.6095 21.9377 12.2013 21.102 13.1649C20.2663 14.1285 19.8249 15.3889 19.8703 16.6813C19.9158 17.9738 20.4446 19.1977 21.3457 20.0962C22.2469 20.9948 23.4503 21.4979 24.7031 21.4999V24.4999Z" fill="black" fill-opacity="0.6"/>
</svg>
