<svg width="27" height="26" viewBox="0 0 27 26" fill="none" xmlns="http://www.w3.org/2000/svg">
<path d="M2.69996 25.9999H15.6867C16.4657 25.9999 17.2355 25.829 17.9431 25.4991C18.6508 25.1691 19.2797 24.6878 19.7866 24.0883L26.6742 15.9434C26.8184 15.7732 26.9192 15.5696 26.9675 15.3506C27.0158 15.1316 27.0102 14.9039 26.9513 14.6876C26.8923 14.4712 26.7818 14.273 26.6294 14.1101C26.4771 13.9473 26.2875 13.825 26.0775 13.7539L23.4208 12.8563C22.7787 12.6443 22.095 12.5963 21.4302 12.7163C20.7654 12.8364 20.1401 13.1209 19.6098 13.5446L15.3101 17.0299L14.4772 15.3399C14.0309 14.429 13.342 13.6628 12.4883 13.1283C11.6346 12.5938 10.6503 12.3124 9.64694 12.3157H2.69996C1.21093 12.3157 0 13.5432 0 15.0526V23.2631C0 24.7725 1.21093 25.9999 2.69996 25.9999ZM2.69996 15.0526H9.64694C10.677 15.0526 11.6017 15.6314 12.0621 16.5647L12.6655 17.7894H6.74989V20.5263H14.8687C15.0763 20.5233 15.2805 20.4718 15.4654 20.3757L15.4694 20.3744L15.4748 20.3716H15.4788L15.4816 20.3703H15.4869L15.4883 20.3689C15.5004 20.373 15.4923 20.3675 15.4923 20.3675C15.5058 20.3675 15.495 20.3661 15.495 20.3661H15.4964L15.4991 20.3648L15.5031 20.3634L15.5058 20.362L15.5085 20.3607L15.5126 20.3593L15.5153 20.3579C15.5193 20.3579 15.518 20.3566 15.518 20.3566L15.522 20.3538L15.5247 20.3525L15.5274 20.3511L15.5315 20.3497L15.5342 20.3484H15.5356L15.5382 20.347L15.5423 20.3456L15.545 20.3443C15.5571 20.3429 15.549 20.3429 15.549 20.3429L15.5517 20.3415C15.6036 20.3094 15.6532 20.2737 15.7002 20.2348L21.2973 15.6957C21.6509 15.4111 22.1383 15.3222 22.5662 15.4672L23.3182 15.7217L17.7387 22.3216C17.482 22.617 17.1663 22.8536 16.8126 23.0159C16.4588 23.1782 16.0751 23.2625 15.6867 23.2631H2.69996V15.0526ZM18.8997 -5.08677e-05H18.8767C18.6567 0.00268597 17.5187 0.0533174 16.1997 0.964685C14.9159 0.077949 13.8049 0.00679114 13.543 0.00131745L13.5025 -5.08677e-05H13.4971C12.4158 -5.08677e-05 11.3979 0.428265 10.6365 1.20142C9.87239 1.97732 9.44985 3.00774 9.44985 4.10521C9.44985 5.20268 9.87239 6.2331 10.6122 6.98437L15.221 11.8915C15.3478 12.025 15.4999 12.1311 15.6681 12.2035C15.8363 12.2759 16.0173 12.3132 16.2 12.3131C16.3828 12.313 16.5637 12.2754 16.7318 12.2028C16.8999 12.1301 17.0519 12.0238 17.1785 11.8902L21.763 7.00763C22.5284 6.2331 22.9496 5.20268 22.9496 4.10521C22.9496 3.00774 22.5271 1.97732 21.7643 1.20279C21.3894 0.820502 20.9434 0.517359 20.4522 0.310895C19.9609 0.104432 19.4342 -0.00125458 18.9024 -5.08677e-05H18.8997ZM20.2497 4.10521C20.2497 4.47058 20.1093 4.81405 19.8298 5.09732L16.1997 8.9631L12.5453 5.07268C12.2902 4.81405 12.1498 4.47058 12.1498 4.10521C12.1498 3.73984 12.2902 3.39637 12.5467 3.13637C12.7911 2.88503 13.1233 2.74146 13.4714 2.73679C13.5052 2.73816 14.1491 2.78058 14.9119 3.40047C15.0208 3.48988 15.1319 3.59114 15.2453 3.70426L16.1997 4.67174L17.1542 3.70426C17.2676 3.59114 17.3787 3.48988 17.4876 3.40047C18.2018 2.8189 18.8052 2.74637 18.9078 2.73816C19.2628 2.74004 19.6028 2.88359 19.8541 3.13774C20.1093 3.39637 20.2497 3.73984 20.2497 4.10521Z" fill="black" fill-opacity="0.6"/>
</svg>
