<svg width="16" height="16" viewBox="0 0 16 16" fill="none" xmlns="http://www.w3.org/2000/svg">
<path d="M7.79316 0.206787C12.0973 0.206787 15.5863 3.69579 15.5863 7.99995C15.5863 12.3041 12.0973 15.7931 7.79316 15.7931C3.489 15.7931 0 12.3041 0 7.99995C0 3.69579 3.489 0.206787 7.79316 0.206787ZM7.79316 1.76542C6.13966 1.76542 4.55388 2.42227 3.38468 3.59147C2.21548 4.76067 1.55863 6.34645 1.55863 7.99995C1.55863 9.65345 2.21548 11.2392 3.38468 12.4084C4.55388 13.5776 6.13966 14.2345 7.79316 14.2345C9.44666 14.2345 11.0324 13.5776 12.2016 12.4084C13.3708 11.2392 14.0277 9.65345 14.0277 7.99995C14.0277 6.34645 13.3708 4.76067 12.2016 3.59147C11.0324 2.42227 9.44666 1.76542 7.79316 1.76542ZM7.79316 3.32405C7.98404 3.32408 8.16827 3.39416 8.31092 3.521C8.45356 3.64784 8.54469 3.82262 8.56702 4.01219L8.57248 4.10337V7.67731L10.6821 9.78692C10.8219 9.92716 10.903 10.1154 10.909 10.3133C10.9151 10.5112 10.8456 10.704 10.7146 10.8525C10.5837 11.001 10.4011 11.0941 10.204 11.1128C10.0069 11.1316 9.81002 11.0747 9.65339 10.9536L9.58013 10.8889L7.24218 8.55092C7.12106 8.4297 7.04327 8.27193 7.02086 8.10204L7.01384 7.99995V4.10337C7.01384 3.89668 7.09595 3.69846 7.2421 3.55231C7.38825 3.40616 7.58647 3.32405 7.79316 3.32405Z" fill="black" fill-opacity="0.9"/>
</svg>
