<svg width="127" height="127" viewBox="0 0 127 127" fill="none" xmlns="http://www.w3.org/2000/svg">
<path fill-rule="evenodd" clip-rule="evenodd" d="M97.4062 15.0625H29.5938C25.7398 15.0625 22.0437 16.5935 19.3186 19.3186C16.5935 22.0437 15.0625 25.7398 15.0625 29.5938V78.2928L24.3819 71.5116C27.3144 69.3808 30.8527 68.2461 34.4775 68.274C38.1024 68.3019 41.6228 69.4909 44.5222 71.6666L53.5122 78.4091L76.4522 58.7434C79.606 56.0425 83.6415 54.5929 87.7931 54.6697C91.9447 54.7465 95.9238 56.3443 98.9756 59.16L111.938 71.1241V29.5938C111.937 25.7398 110.407 22.0437 107.681 19.3186C104.956 16.5935 101.26 15.0625 97.4062 15.0625ZM126.469 87.6994V29.5938C126.469 21.8859 123.407 14.4937 117.957 9.04346C112.506 3.59318 105.114 0.53125 97.4062 0.53125H29.5938C21.8859 0.53125 14.4937 3.59318 9.04346 9.04346C3.59318 14.4937 0.53125 21.8859 0.53125 29.5938V97.4062C0.53125 105.114 3.59318 112.506 9.04346 117.957C14.4937 123.407 21.8859 126.469 29.5938 126.469H97.4062C105.114 126.469 112.506 123.407 117.957 117.957C123.407 112.506 126.469 105.114 126.469 97.4062V87.6994ZM111.938 90.8963L89.1234 69.8356C88.6874 69.434 88.1191 69.2062 87.5264 69.1955C86.9336 69.1848 86.3575 69.3918 85.9072 69.7775L58.54 93.2406L54.1128 97.0381L49.4531 93.5409L35.7937 83.3012C35.3801 82.9931 34.8789 82.825 34.3632 82.8216C33.8474 82.8181 33.344 82.9793 32.9262 83.2819L15.0625 96.2534V97.4062C15.0625 101.26 16.5935 104.956 19.3186 107.681C22.0437 110.407 25.7398 111.937 29.5938 111.938H97.4062C101.26 111.937 104.956 110.407 107.681 107.681C110.407 104.956 111.937 101.26 111.938 97.4062V90.8963ZM58.6562 44.125C58.6562 47.9789 57.1253 51.675 54.4001 54.4001C51.675 57.1253 47.9789 58.6562 44.125 58.6562C40.2711 58.6562 36.575 57.1253 33.8499 54.4001C31.1247 51.675 29.5938 47.9789 29.5938 44.125C29.5938 40.2711 31.1247 36.575 33.8499 33.8499C36.575 31.1247 40.2711 29.5938 44.125 29.5938C47.9789 29.5938 51.675 31.1247 54.4001 33.8499C57.1253 36.575 58.6562 40.2711 58.6562 44.125Z" fill="black" fill-opacity="0.2"/>
</svg>
