<svg width="28" height="25" viewBox="0 0 28 25" fill="none" xmlns="http://www.w3.org/2000/svg">
<path fill-rule="evenodd" clip-rule="evenodd" d="M12.7694 24.3778C12.3846 24.1454 11.9858 23.9361 11.5752 23.751C10.549 23.2861 9.1798 22.8486 7.7 22.8486C5.9094 22.8486 4.2868 23.4904 3.248 24.0308C2.92022 24.1992 2.55475 24.2849 2.18465 24.2801C1.81456 24.2753 1.45152 24.1802 1.1284 24.0034C0.788565 23.8245 0.504332 23.5592 0.305718 23.2352C0.107103 22.9113 0.00147875 22.5408 0 22.1629V5.02005C0 4.16839 0.413 3.28793 1.2572 2.78599C2.3408 2.14142 4.7796 0.905762 7.7 0.905762C9.9134 0.905762 12.103 1.60519 14 2.70233C15.897 1.60519 18.0866 0.905762 20.3 0.905762C23.2204 0.905762 25.6592 2.14005 26.7428 2.78599C27.587 3.28793 28 4.16839 28 5.02005V22.1629C28 23.031 27.4694 23.6797 26.8716 24.0034C26.5483 24.1804 26.185 24.2757 25.8146 24.2805C25.4443 24.2853 25.0786 24.1994 24.7506 24.0308C23.7132 23.4904 22.0906 22.8486 20.3 22.8486C18.8202 22.8486 17.451 23.2875 16.4248 23.751C16.0142 23.9361 15.6154 24.1454 15.2306 24.3778C14.833 24.6205 14.497 24.9058 14.0014 24.9058C13.503 24.9058 13.1684 24.6205 12.7694 24.3778ZM2.8 21.1947V5.07765C3.7422 4.52908 5.6 3.64862 7.7 3.64862C9.422 3.64862 11.1272 4.22188 12.6 5.07765V21.1947C11.361 20.6516 9.6418 20.1058 7.7 20.1058C5.7666 20.1058 4.0474 20.6475 2.8 21.1947ZM15.4 21.1947C16.639 20.6516 18.3582 20.1058 20.3 20.1058C22.2334 20.1058 23.9526 20.6475 25.2 21.1947V5.07765C24.2578 4.52908 22.4 3.64862 20.3 3.64862C18.578 3.64862 16.8728 4.22188 15.4 5.07765V21.1947Z" fill="black" fill-opacity="0.6"/>
</svg>
