<svg width="26" height="30" viewBox="0 0 26 30" fill="none" xmlns="http://www.w3.org/2000/svg">
<path d="M21.5 3.66659H20.0833V2.24992C20.0833 1.8742 19.9341 1.51386 19.6684 1.24818C19.4027 0.982507 19.0424 0.833252 18.6667 0.833252C18.2909 0.833252 17.9306 0.982507 17.6649 1.24818C17.3993 1.51386 17.25 1.8742 17.25 2.24992V3.66659H8.75V2.24992C8.75 1.8742 8.60074 1.51386 8.33507 1.24818C8.06939 0.982507 7.70906 0.833252 7.33333 0.833252C6.95761 0.833252 6.59728 0.982507 6.3316 1.24818C6.06592 1.51386 5.91667 1.8742 5.91667 2.24992V3.66659H4.5C3.37283 3.66659 2.29183 4.11435 1.4948 4.91138C0.697767 5.70841 0.25 6.78942 0.25 7.91659V24.9166C0.25 26.0438 0.697767 27.1248 1.4948 27.9218C2.29183 28.7188 3.37283 29.1666 4.5 29.1666H21.5C22.6272 29.1666 23.7082 28.7188 24.5052 27.9218C25.3022 27.1248 25.75 26.0438 25.75 24.9166V7.91659C25.75 6.78942 25.3022 5.70841 24.5052 4.91138C23.7082 4.11435 22.6272 3.66659 21.5 3.66659V3.66659ZM4.5 6.49992H5.91667V7.91659C5.91667 8.29231 6.06592 8.65264 6.3316 8.91832C6.59728 9.184 6.95761 9.33325 7.33333 9.33325C7.70906 9.33325 8.06939 9.184 8.33507 8.91832C8.60074 8.65264 8.75 8.29231 8.75 7.91659V6.49992H17.25V7.91659C17.25 8.29231 17.3993 8.65264 17.6649 8.91832C17.9306 9.184 18.2909 9.33325 18.6667 9.33325C19.0424 9.33325 19.4027 9.184 19.6684 8.91832C19.9341 8.65264 20.0833 8.29231 20.0833 7.91659V6.49992H21.5C21.8757 6.49992 22.2361 6.64917 22.5017 6.91485C22.7674 7.18053 22.9167 7.54086 22.9167 7.91659V13.5833H3.08333V7.91659C3.08333 7.54086 3.23259 7.18053 3.49827 6.91485C3.76394 6.64917 4.12428 6.49992 4.5 6.49992V6.49992ZM21.5 26.3333H4.5C4.12428 26.3333 3.76394 26.184 3.49827 25.9183C3.23259 25.6526 3.08333 25.2923 3.08333 24.9166V16.4166H22.9167V24.9166C22.9167 25.2923 22.7674 25.6526 22.5017 25.9183C22.2361 26.184 21.8757 26.3333 21.5 26.3333Z" fill="#44B6FF"/>
</svg>
