<svg width="26" height="30" viewBox="0 0 26 30" fill="none" xmlns="http://www.w3.org/2000/svg">
<path d="M21.5 3.66665H20.0833V2.24998C20.0833 1.87426 19.9341 1.51392 19.6684 1.24824C19.4027 0.982568 19.0424 0.833313 18.6667 0.833313C18.2909 0.833313 17.9306 0.982568 17.6649 1.24824C17.3993 1.51392 17.25 1.87426 17.25 2.24998V3.66665H8.75V2.24998C8.75 1.87426 8.60074 1.51392 8.33507 1.24824C8.06939 0.982568 7.70906 0.833313 7.33333 0.833313C6.95761 0.833313 6.59728 0.982568 6.3316 1.24824C6.06592 1.51392 5.91667 1.87426 5.91667 2.24998V3.66665H4.5C3.37283 3.66665 2.29183 4.11441 1.4948 4.91144C0.697767 5.70847 0.25 6.78948 0.25 7.91665V24.9166C0.25 26.0438 0.697767 27.1248 1.4948 27.9218C2.29183 28.7189 3.37283 29.1666 4.5 29.1666H21.5C22.6272 29.1666 23.7082 28.7189 24.5052 27.9218C25.3022 27.1248 25.75 26.0438 25.75 24.9166V7.91665C25.75 6.78948 25.3022 5.70847 24.5052 4.91144C23.7082 4.11441 22.6272 3.66665 21.5 3.66665V3.66665ZM4.5 6.49998H5.91667V7.91665C5.91667 8.29237 6.06592 8.6527 6.3316 8.91838C6.59728 9.18406 6.95761 9.33331 7.33333 9.33331C7.70906 9.33331 8.06939 9.18406 8.33507 8.91838C8.60074 8.6527 8.75 8.29237 8.75 7.91665V6.49998H17.25V7.91665C17.25 8.29237 17.3993 8.6527 17.6649 8.91838C17.9306 9.18406 18.2909 9.33331 18.6667 9.33331C19.0424 9.33331 19.4027 9.18406 19.6684 8.91838C19.9341 8.6527 20.0833 8.29237 20.0833 7.91665V6.49998H21.5C21.8757 6.49998 22.2361 6.64924 22.5017 6.91491C22.7674 7.18059 22.9167 7.54092 22.9167 7.91665V13.5833H3.08333V7.91665C3.08333 7.54092 3.23259 7.18059 3.49827 6.91491C3.76394 6.64924 4.12428 6.49998 4.5 6.49998V6.49998ZM21.5 26.3333H4.5C4.12428 26.3333 3.76394 26.1841 3.49827 25.9184C3.23259 25.6527 3.08333 25.2924 3.08333 24.9166V16.4166H22.9167V24.9166C22.9167 25.2924 22.7674 25.6527 22.5017 25.9184C22.2361 26.1841 21.8757 26.3333 21.5 26.3333Z" fill="black" fill-opacity="0.6"/>
</svg>
