<svg width="206" height="48" viewBox="0 0 206 48" fill="none" xmlns="http://www.w3.org/2000/svg">
<path d="M11.4712 47L0.572731 4.72461H13.4048L18.268 30.5938H18.5024L24.5083 4.72461H34.7036L40.7094 30.5938H40.9438L45.8071 4.72461H58.6391L47.7407 47H35.436L29.7231 24.2363H29.4887L23.7759 47H11.4712ZM61.8054 47V4.72461H73.8171V20.6621H74.0514C74.8522 18.4746 76.0729 16.8145 77.7136 15.6816C79.3542 14.5293 81.3952 13.9531 83.8366 13.9531C86.2194 13.9531 88.2311 14.4414 89.8718 15.418C91.5319 16.375 92.7917 17.7715 93.6511 19.6074C94.5104 21.4238 94.9401 23.6309 94.9401 26.2285V47H82.9284V28.8652C82.9284 27.2441 82.5475 25.9648 81.7858 25.0273C81.0241 24.0898 79.8913 23.6211 78.3874 23.6211C77.4499 23.6211 76.6393 23.8457 75.9557 24.2949C75.2722 24.7441 74.7448 25.3594 74.3737 26.1406C74.0026 26.9219 73.8171 27.8203 73.8171 28.8359V47H61.8054ZM99.0438 47V14.6562H111.056V47H99.0438ZM105.05 11.7559C103.37 11.7559 101.954 11.1895 100.802 10.0566C99.6688 8.92383 99.1024 7.58594 99.1024 6.04297C99.1024 4.48047 99.6688 3.14258 100.802 2.0293C101.954 0.896484 103.37 0.330078 105.05 0.330078C106.729 0.330078 108.136 0.896484 109.268 2.0293C110.421 3.14258 110.997 4.48047 110.997 6.04297C110.997 7.58594 110.421 8.92383 109.268 10.0566C108.136 11.1895 106.729 11.7559 105.05 11.7559ZM130.159 47.7031C126.761 47.7031 123.9 47.2539 121.575 46.3555C119.251 45.4375 117.454 44.168 116.185 42.5469C114.915 40.9258 114.153 39.041 113.9 36.8926L113.87 36.6289H125.472L125.53 36.8633C125.765 37.8008 126.253 38.5332 126.995 39.0605C127.757 39.5879 128.812 39.8516 130.159 39.8516C130.941 39.8516 131.605 39.7734 132.151 39.6172C132.718 39.4414 133.148 39.1973 133.441 38.8848C133.753 38.5723 133.909 38.2012 133.909 37.7715V37.7422C133.909 37.1562 133.636 36.6875 133.089 36.3359C132.542 35.9648 131.605 35.6523 130.276 35.3984L124.417 34.3145C122.288 33.9238 120.491 33.2988 119.026 32.4395C117.562 31.5605 116.458 30.4668 115.716 29.1582C114.974 27.8496 114.603 26.3652 114.603 24.7051V24.6758C114.603 22.4297 115.208 20.5156 116.419 18.9336C117.63 17.332 119.368 16.1016 121.634 15.2422C123.9 14.3828 126.595 13.9531 129.72 13.9531C133.06 13.9531 135.843 14.4512 138.069 15.4473C140.316 16.4434 142.005 17.7617 143.138 19.4023C144.271 21.043 144.837 22.8496 144.837 24.8223V25.0273H133.939L133.909 24.7637C133.831 24.002 133.431 23.3184 132.708 22.7129C132.005 22.1074 131.009 21.8047 129.72 21.8047C128.997 21.8047 128.362 21.8926 127.816 22.0684C127.269 22.2441 126.839 22.498 126.526 22.8301C126.233 23.1426 126.087 23.5332 126.087 24.002V24.0312C126.087 24.4023 126.194 24.7344 126.409 25.0273C126.624 25.3008 127.005 25.5449 127.552 25.7598C128.099 25.9746 128.86 26.1797 129.837 26.375L135.696 27.459C139.192 28.1035 141.751 29.1387 143.372 30.5645C144.993 31.9902 145.804 33.9238 145.804 36.3652V36.3945C145.804 38.7188 145.15 40.7305 143.841 42.4297C142.532 44.1094 140.706 45.4082 138.362 46.3262C136.019 47.2441 133.284 47.7031 130.159 47.7031ZM148.765 47V4.72461H160.777V47H148.765ZM169.038 47L161.245 33.8164L168.658 24.1777L182.837 47H169.038ZM159.839 38.9141V26.3457H161.011L168.863 14.6562H182.076L167.544 33.2891H164.146L159.839 38.9141ZM183.66 47V14.6562H195.671V20.457H195.906C196.316 18.3477 197.126 16.7363 198.337 15.623C199.568 14.5098 201.15 13.9531 203.084 13.9531C203.591 13.9531 204.089 13.9922 204.578 14.0703C205.066 14.1484 205.535 14.2656 205.984 14.4219V24.5293C205.476 24.3145 204.919 24.1484 204.314 24.0312C203.728 23.9141 203.123 23.8555 202.498 23.8555C200.994 23.8555 199.734 24.1094 198.718 24.6172C197.703 25.125 196.941 25.8867 196.433 26.9023C195.925 27.8984 195.671 29.1484 195.671 30.6523V47H183.66Z" fill="#44B6FF"/>
</svg>
